<?xml version="1.0" encoding="utf-8"?>
<!-- Generator: Adobe Illustrator 26.5.0, SVG Export Plug-In . SVG Version: 6.00 Build 0)  -->
<svg version="1.1" id="volume_x5F_icon" xmlns="http://www.w3.org/2000/svg" xmlns:xlink="http://www.w3.org/1999/xlink" x="0px"
	 y="0px" viewBox="0 0 50 50" style="enable-background:new 0 0 50 50;" xml:space="preserve">
<style type="text/css">
	.st0{fill:#FFFFFF;}
</style>
<path class="st0" d="M4.5,30.7L14,44.8c2.4,3.5,7.9,1.9,7.9-2.4V7.6c0-4.3-5.5-5.9-7.9-2.4L4.5,19.3C4,20,3.8,20.8,3.8,21.7v6.5
	C3.8,29.1,4.1,30,4.5,30.7z"/>
<path class="st0" d="M41.7,21.5L31.1,32.1c-1,1-2.6,1-3.5,0l0,0c-1-1-1-2.6,0-3.5l10.6-10.6c1-1,2.6-1,3.5,0l0,0
	C42.7,18.9,42.7,20.5,41.7,21.5z"/>
<path class="st0" d="M38.2,32.1L27.6,21.5c-1-1-1-2.6,0-3.5l0,0c1-1,2.6-1,3.5,0l10.6,10.6c1,1,1,2.6,0,3.5l0,0
	C40.7,33,39.1,33,38.2,32.1z"/>
</svg>
