<?xml version="1.0" encoding="utf-8"?>
<!-- Generator: Adobe Illustrator 26.5.0, SVG Export Plug-In . SVG Version: 6.00 Build 0)  -->
<svg version="1.1" id="pause_x5F_icon" xmlns="http://www.w3.org/2000/svg" xmlns:xlink="http://www.w3.org/1999/xlink" x="0px"
	 y="0px" viewBox="0 0 50 50" style="enable-background:new 0 0 50 50;" xml:space="preserve">
<style type="text/css">
	.st0{fill:#FFFFFF;}
</style>
<path class="st0" d="M12.1,46.7L12.1,46.7c-3.6,0-6.5-2.9-6.5-6.5V9.8c0-3.6,2.9-6.5,6.5-6.5h0c3.6,0,6.5,2.9,6.5,6.5v30.5
	C18.5,43.8,15.6,46.7,12.1,46.7z"/>
<path class="st0" d="M37.9,46.7L37.9,46.7c-3.6,0-6.5-2.9-6.5-6.5V9.8c0-3.6,2.9-6.5,6.5-6.5h0c3.6,0,6.5,2.9,6.5,6.5v30.5
	C44.4,43.8,41.5,46.7,37.9,46.7z"/>
</svg>
