<?xml version="1.0" encoding="utf-8"?>
<!-- Generator: Adobe Illustrator 26.5.0, SVG Export Plug-In . SVG Version: 6.00 Build 0)  -->
<svg version="1.1" id="volume_x5F_icon" xmlns="http://www.w3.org/2000/svg" xmlns:xlink="http://www.w3.org/1999/xlink" x="0px"
	 y="0px" viewBox="0 0 50 50" style="enable-background:new 0 0 50 50;" xml:space="preserve">
<style type="text/css">
	.st0{fill:#FFFFFF;}
</style>
<path class="st0" d="M4.5,30.7L14,44.8c2.4,3.5,7.9,1.9,7.9-2.4V7.6c0-4.3-5.5-5.9-7.9-2.4L4.5,19.3c-0.5,0.7-0.7,1.5-0.7,2.4v6.5
	C3.8,29.1,4.1,30,4.5,30.7z"/>
<g>
	<path class="st0" d="M46.2,25c0-9.5-5.6-17.6-13.6-21.3c-0.7-0.3-1.4,0-1.7,0.7v0c-0.2,0.6,0,1.3,0.6,1.6
		C38.7,9.3,43.7,16.5,43.7,25c0,8.5-5,15.7-12.2,19.1c-0.6,0.3-0.9,1-0.6,1.6v0c0.3,0.7,1.1,1,1.7,0.7C40.6,42.6,46.2,34.5,46.2,25z
		"/>
	<path class="st0" d="M38.7,25c0-6.3-3.6-11.7-8.9-14.3c-0.7-0.3-1.5,0-1.7,0.7v0c-0.2,0.6,0,1.3,0.6,1.6c4.5,2.2,7.5,6.8,7.5,12.1
		s-3.1,9.9-7.5,12.1c-0.6,0.3-0.8,1-0.6,1.6v0c0.3,0.7,1.1,1,1.7,0.7C35.1,36.7,38.7,31.3,38.7,25z"/>
	<path class="st0" d="M31.2,25c0-3.1-1.6-5.8-4.1-7.3c-0.6-0.4-1.5-0.1-1.8,0.6l0,0c-0.2,0.6,0,1.2,0.5,1.5c1.7,1.1,2.8,2.9,2.8,5.1
		s-1.1,4-2.8,5.1c-0.5,0.3-0.8,1-0.5,1.5v0c0.3,0.7,1.1,1,1.8,0.6C29.5,30.8,31.2,28.1,31.2,25z"/>
</g>
</svg>
